<svg width="165" height="45" viewBox="0 0 165 45" fill="none" xmlns="http://www.w3.org/2000/svg">
<path d="M23.2898 39.36C23.0232 39.36 22.8898 39.2667 22.8898 39.08C22.8898 38.92 22.9832 38.8267 23.1698 38.8C23.3832 38.7733 23.6898 38.6933 24.0898 38.56C25.3698 38.0267 26.6498 36.6667 27.9298 34.48C25.0232 34.4 22.7565 33.6267 21.1298 32.16C19.3965 30.5867 18.5298 28.3733 18.5298 25.52C18.5298 22.1333 19.7698 18.68 22.2498 15.16C24.6232 11.8267 27.3965 9.34667 30.5698 7.72C29.8232 7.64 29.2232 7.6 28.7698 7.6C28.2365 7.6 27.6765 7.64 27.0898 7.72C26.5298 7.77333 25.9565 7.86666 25.3698 8C23.8765 8.34667 22.5432 8.86667 21.3698 9.56C19.7432 10.52 18.9298 11.5867 18.9298 12.76C18.9298 12.8933 18.9432 13 18.9698 13.08V13.4C18.9698 13.7733 18.8498 13.96 18.6098 13.96C18.2632 13.96 17.9965 13.7067 17.8098 13.2C17.6232 12.8267 17.5298 12.44 17.5298 12.04C17.5298 10.3867 19.0098 9.10667 21.9698 8.2C24.1298 7.56 26.3032 7.24 28.4898 7.24C28.8365 7.24 29.2365 7.26667 29.6898 7.32C30.1432 7.34667 30.6365 7.38667 31.1698 7.44C31.8365 7.14667 32.5032 6.88 33.1698 6.64C33.8365 6.4 34.5032 6.2 35.1698 6.04C35.1965 5.58667 35.2098 5.16 35.2098 4.76C35.2098 4.33333 35.2098 3.93333 35.2098 3.56C35.2098 3.29333 35.1965 2.89333 35.1698 2.36C35.1432 1.8 35.1298 1.38666 35.1298 1.12C35.1298 0.906665 35.1965 0.799998 35.3298 0.799998C35.3832 0.799998 35.4365 0.866664 35.4898 0.999998C35.7032 1.77333 35.8098 2.85333 35.8098 4.24C35.8098 4.50667 35.8098 4.78667 35.8098 5.08C35.8098 5.34667 35.7965 5.62667 35.7698 5.92C36.3032 5.81333 36.8232 5.73333 37.3298 5.68C37.8365 5.62667 38.3298 5.6 38.8098 5.6C41.3432 5.6 43.3432 6.26666 44.8098 7.6C46.3032 8.90667 47.0498 10.7867 47.0498 13.24V13.44C47.0498 13.8933 46.8632 14.12 46.4898 14.12C46.2765 14.12 46.0232 14.04 45.7298 13.88C44.5032 13.1333 43.4765 12.5333 42.6498 12.08C41.8498 11.6 41.2365 11.2533 40.8098 11.04C39.9032 10.56 39.0098 10.1333 38.1298 9.76C37.2498 9.38667 36.3832 9.06667 35.5298 8.8C35.3965 10.08 35.2098 11.4133 34.9698 12.8C34.7298 14.16 34.4632 15.5733 34.1698 17.04C34.5965 16.6933 34.9565 16.52 35.2498 16.52C35.5432 16.52 35.6898 16.6933 35.6898 17.04C35.6898 17.6 35.4365 18.2267 34.9298 18.92C34.3965 19.6133 33.8898 20.0933 33.4098 20.36C32.7965 22.8667 32.1298 25.1733 31.4098 27.28C30.7165 29.36 29.9698 31.2267 29.1698 32.88C29.3565 32.9067 29.5298 32.92 29.6898 32.92C29.8765 32.92 30.0632 32.92 30.2498 32.92C33.3965 32.92 36.4765 32.1467 39.4898 30.6C42.6365 29.0533 45.0365 26.9867 46.6898 24.4C46.9032 24.08 47.0365 23.92 47.0898 23.92C47.1165 23.9467 47.1298 23.9867 47.1298 24.04C47.1298 24.2533 47.0765 24.4533 46.9698 24.64C45.3165 27.44 42.6232 29.8 38.8898 31.72C35.2898 33.5067 31.7832 34.4267 28.3698 34.48C26.5565 37.7333 24.8632 39.36 23.2898 39.36ZM45.4098 11.8C45.6232 11.8 45.7298 11.6533 45.7298 11.36C45.7298 11.0667 45.6365 10.7467 45.4498 10.4C44.7832 9.14667 43.5832 8.18667 41.8498 7.52C40.4098 6.93333 38.8632 6.64 37.2098 6.64C36.9432 6.64 36.6898 6.65333 36.4498 6.68C36.2098 6.68 35.9565 6.69333 35.6898 6.72L35.5698 8.16C37.1698 8.50667 38.7432 8.96 40.2898 9.52C41.8632 10.08 43.3965 10.7733 44.8898 11.6C45.1032 11.7333 45.2765 11.8 45.4098 11.8ZM35.0098 8.04L35.0898 6.76C34.0232 6.92 33.0098 7.18667 32.0498 7.56L35.0098 8.04ZM28.7698 32.84C29.5965 31.1867 30.3565 29.3067 31.0498 27.2C31.7698 25.0667 32.4232 22.72 33.0098 20.16C32.2898 19.2267 31.9298 18.2933 31.9298 17.36C31.9298 16.5067 32.1565 16.08 32.6098 16.08C32.9832 16.08 33.3298 16.44 33.6498 17.16C34.2632 14.1467 34.7032 11.3067 34.9698 8.64C34.3832 8.45333 33.7832 8.30666 33.1698 8.2C32.5832 8.06666 31.9832 7.94666 31.3698 7.84C28.3298 9.25333 25.8232 11.5067 23.8498 14.6C21.8498 17.72 20.8498 20.9467 20.8498 24.28C20.8498 26.7867 21.5432 28.7867 22.9298 30.28C24.3165 31.7467 26.2632 32.6 28.7698 32.84ZM49.2017 30.6C47.8684 30.6 47.2017 29.92 47.2017 28.56C47.2017 27.0933 47.8817 24.52 49.2417 20.84C48.5751 21.7467 48.1084 22.2 47.8417 22.2C47.7617 22.2 47.7217 22.16 47.7217 22.08C47.7217 22.0533 48.0684 21.5867 48.7617 20.68C49.1084 20.2267 49.3751 19.88 49.5617 19.64C49.7751 19.3733 49.8951 19.2 49.9217 19.12C50.0551 18.7467 50.2417 18.2667 50.4817 17.68C50.7217 17.0933 51.0017 16.4267 51.3217 15.68C51.9084 14.3467 52.5084 13.0133 53.1217 11.68C53.7351 10.32 54.3751 8.96 55.0417 7.6C55.2551 7.14666 55.5217 6.6 55.8417 5.96C56.1884 5.32 56.5884 4.58666 57.0417 3.76C57.3351 3.30667 57.8817 3.08 58.6817 3.08C59.1617 3.08 59.4017 3.2 59.4017 3.44C59.4017 3.52 59.3884 3.58667 59.3617 3.64L57.2017 8.44L56.3217 10.36C56.1351 10.4667 55.8951 10.6667 55.6017 10.96C55.6017 10.96 55.4551 11.24 55.1617 11.8C54.8951 12.36 54.4684 13.1867 53.8817 14.28C50.1217 21.5867 48.2417 26.36 48.2417 28.6C48.2417 29.48 48.5351 29.92 49.1217 29.92C49.7884 29.92 50.5751 29.5467 51.4817 28.8C52.4151 28.0267 52.8551 27.64 52.8017 27.64C52.9084 27.64 52.9617 27.6933 52.9617 27.8C52.9617 27.9067 52.9084 28.0133 52.8017 28.12C51.6284 29.7733 50.4284 30.6 49.2017 30.6ZM56.3652 31.36C54.4718 31.36 53.5252 30.1333 53.5252 27.68C53.5252 27.3067 53.5385 26.9067 53.5652 26.48C53.6185 26.0267 53.6985 25.5467 53.8052 25.04C53.6985 24.96 53.5918 24.8533 53.4852 24.72C53.3785 24.56 53.2718 24.3733 53.1652 24.16C53.2718 24.1867 53.3785 24.24 53.4852 24.32C53.6185 24.3733 53.7785 24.4267 53.9652 24.48C54.2585 23.1467 55.0585 21.8267 56.3652 20.52C57.7785 19.08 59.1118 18.36 60.3652 18.36C60.6585 18.36 60.8052 18.4 60.8052 18.48C60.8052 18.5333 60.6185 18.6667 60.2452 18.88C59.2585 19.4133 58.3252 20.24 57.4452 21.36C56.5652 22.5067 55.9252 23.6267 55.5252 24.72L55.6052 24.8C56.8852 24.8 58.2185 24.1867 59.6052 22.96C60.9918 21.7333 61.6852 20.48 61.6852 19.2C61.6852 18.8 61.5785 18.44 61.3652 18.12C61.1518 17.8 60.8585 17.64 60.4852 17.64C59.9518 17.64 59.3518 17.8533 58.6852 18.28C58.0185 18.68 57.6452 18.88 57.5652 18.88C57.5118 18.88 57.4852 18.8667 57.4852 18.84C57.4852 18.52 57.9518 18.1733 58.8852 17.8C59.6852 17.48 60.3118 17.32 60.7652 17.32C61.3785 17.32 61.8852 17.4933 62.2852 17.84C62.7118 18.1867 62.9252 18.6667 62.9252 19.28C62.9252 20.6933 62.0052 22.0667 60.1652 23.4C58.5118 24.5733 56.9118 25.2267 55.3652 25.36C55.1518 26 55.0452 26.6133 55.0452 27.2C55.0452 29.4133 55.8452 30.52 57.4452 30.52C58.6718 30.52 59.9518 29.9867 61.2852 28.92C62.4052 28.04 63.3385 26.9733 64.0852 25.72C64.3252 25.3467 64.5252 25.16 64.6852 25.16C64.7118 25.16 64.7252 25.1867 64.7252 25.24C64.7252 25.3467 64.6185 25.5867 64.4052 25.96C63.5785 27.2667 62.4185 28.4667 60.9252 29.56C59.2985 30.76 57.7785 31.36 56.3652 31.36ZM65.162 30.88C64.922 30.88 64.802 30.7733 64.802 30.56C64.802 30.5333 64.802 30.5067 64.802 30.48C64.8287 30.4533 64.8554 30.4133 64.882 30.36V30.32C64.882 30.1867 64.922 30.0267 65.002 29.84C65.4554 28.72 65.8554 27.1867 66.202 25.24C66.282 24.7867 66.322 24.1067 66.322 23.2C66.322 22.88 66.2687 22.3867 66.162 21.72C66.082 21.0533 66.042 20.56 66.042 20.24C66.042 20.0533 66.1487 19.92 66.362 19.84L68.122 19.36C68.522 18.4533 69.1887 18 70.122 18C70.522 18 70.6554 18.16 70.522 18.48C70.842 18.3467 71.082 18.24 71.242 18.16C71.402 18.08 71.482 18.04 71.482 18.04C71.5354 18.04 71.562 18.08 71.562 18.16C71.562 18.4 71.1354 18.7067 70.282 19.08C69.8287 20.1467 69.282 21.4933 68.642 23.12C68.0287 24.72 67.3087 26.6133 66.482 28.8C67.3087 27.8667 68.0154 27.0267 68.602 26.28C69.2154 25.5333 69.722 24.8933 70.122 24.36C70.4154 23.8267 70.8154 23.1733 71.322 22.4C71.8287 21.6 72.4154 20.6933 73.082 19.68C73.4554 19.2 74.0154 18.96 74.762 18.96C75.5087 18.96 75.882 19.2533 75.882 19.84C75.882 20.08 75.5754 20.9733 74.962 22.52C74.2154 24.36 73.842 25.3333 73.842 25.44C74.5354 24.8267 75.1887 24.1467 75.802 23.4C76.442 22.6267 77.042 21.8 77.602 20.92C77.7087 20.7333 77.8154 20.64 77.922 20.64C78.002 20.64 78.042 20.7067 78.042 20.84C78.042 21.1867 77.3354 22.3333 75.922 24.28C75.4954 24.8667 75.0554 25.4533 74.602 26.04C74.1487 26.6267 73.6954 27.2133 73.242 27.8C73.162 27.9333 72.9887 28 72.722 28C72.5354 28 72.442 27.9067 72.442 27.72C72.442 27.5867 72.482 27.3467 72.562 27C72.642 26.6533 72.7487 26.1867 72.882 25.6L73.522 23.08C73.6287 22.6 73.7087 22.1467 73.762 21.72C73.8154 21.2933 73.842 20.8933 73.842 20.52C72.9087 21.9333 71.682 23.52 70.162 25.28L66.202 29.8C66.122 30.52 65.7754 30.88 65.162 30.88ZM82.562 30.28C81.0954 30.28 79.9487 29.3067 79.122 27.36C78.4554 25.8667 78.122 24.28 78.122 22.6C78.122 21.6133 78.2287 20.88 78.442 20.4C78.602 20.1067 79.0154 19.96 79.682 19.96C79.9487 19.96 80.1087 20.0267 80.162 20.16C80.1087 20.16 80.042 20.44 79.962 21C79.882 21.5067 79.842 22.0667 79.842 22.68C79.842 24.04 80.0687 25.4267 80.522 26.84C81.162 28.68 82.0554 29.6 83.202 29.6C83.3887 29.6 83.6287 29.5467 83.922 29.44C84.242 29.3067 84.4687 29.24 84.602 29.24C84.7354 29.24 84.802 29.28 84.802 29.36C84.802 29.5733 84.4954 29.7867 83.882 30C83.322 30.1867 82.882 30.28 82.562 30.28ZM66.962 22.52C67.0954 22.0667 67.242 21.6267 67.402 21.2C67.562 20.7733 67.7087 20.3867 67.842 20.04L66.762 20.4C66.8154 20.7467 66.8554 21.0933 66.882 21.44C66.9354 21.7867 66.962 22.1467 66.962 22.52ZM88.0058 31.36C86.1124 31.36 85.1658 30.1333 85.1658 27.68C85.1658 27.3067 85.1791 26.9067 85.2058 26.48C85.2591 26.0267 85.3391 25.5467 85.4458 25.04C85.3391 24.96 85.2324 24.8533 85.1258 24.72C85.0191 24.56 84.9124 24.3733 84.8058 24.16C84.9124 24.1867 85.0191 24.24 85.1258 24.32C85.2591 24.3733 85.4191 24.4267 85.6058 24.48C85.8991 23.1467 86.6991 21.8267 88.0058 20.52C89.4191 19.08 90.7524 18.36 92.0058 18.36C92.2991 18.36 92.4458 18.4 92.4458 18.48C92.4458 18.5333 92.2591 18.6667 91.8858 18.88C90.8991 19.4133 89.9658 20.24 89.0858 21.36C88.2058 22.5067 87.5658 23.6267 87.1658 24.72L87.2458 24.8C88.5258 24.8 89.8591 24.1867 91.2458 22.96C92.6324 21.7333 93.3258 20.48 93.3258 19.2C93.3258 18.8 93.2191 18.44 93.0058 18.12C92.7924 17.8 92.4991 17.64 92.1258 17.64C91.5924 17.64 90.9924 17.8533 90.3258 18.28C89.6591 18.68 89.2858 18.88 89.2058 18.88C89.1524 18.88 89.1258 18.8667 89.1258 18.84C89.1258 18.52 89.5924 18.1733 90.5258 17.8C91.3258 17.48 91.9524 17.32 92.4058 17.32C93.0191 17.32 93.5258 17.4933 93.9258 17.84C94.3524 18.1867 94.5658 18.6667 94.5658 19.28C94.5658 20.6933 93.6458 22.0667 91.8058 23.4C90.1524 24.5733 88.5524 25.2267 87.0058 25.36C86.7924 26 86.6858 26.6133 86.6858 27.2C86.6858 29.4133 87.4858 30.52 89.0858 30.52C90.3124 30.52 91.5924 29.9867 92.9258 28.92C94.0458 28.04 94.9791 26.9733 95.7258 25.72C95.9658 25.3467 96.1658 25.16 96.3258 25.16C96.3524 25.16 96.3658 25.1867 96.3658 25.24C96.3658 25.3467 96.2591 25.5867 96.0458 25.96C95.2191 27.2667 94.0591 28.4667 92.5658 29.56C90.9391 30.76 89.4191 31.36 88.0058 31.36ZM95.7627 31.44C95.5227 31.44 95.4027 31.2667 95.4027 30.92V30.84C95.5093 30.4667 95.616 30 95.7227 29.44C95.856 28.88 96.0027 28.2267 96.1627 27.48C96.3227 26.7333 96.5227 25.8 96.7627 24.68C97.0027 23.5333 97.296 22.2133 97.6427 20.72L97.1627 19.56C97.0293 19.2133 96.9227 18.96 96.8427 18.8C96.7893 18.64 96.7627 18.56 96.7627 18.56C96.7627 18.3733 96.9893 18.2 97.4427 18.04C98.776 17.5333 99.6293 17.28 100.003 17.28C100.403 17.28 100.603 17.4 100.603 17.64C100.576 17.56 99.896 19.2667 98.5627 22.76V23.12C98.5627 23.8667 98.4427 24.24 98.2027 24.24C98.176 24.24 98.136 24.2 98.0827 24.12C97.8693 24.7867 97.656 25.4267 97.4427 26.04C97.256 26.6267 97.0827 27.2133 96.9227 27.8C97.5093 26.84 98.1093 25.92 98.7227 25.04C99.3627 24.16 100.016 23.3333 100.683 22.56C102.683 20.24 104.336 19.08 105.643 19.08C106.256 19.08 106.563 19.32 106.563 19.8C106.563 19.96 106.523 20.16 106.443 20.4C106.229 21.3067 105.936 22.4533 105.563 23.84C105.189 25.2 104.749 26.7867 104.243 28.6C105.789 27.4533 106.989 26.2267 107.843 24.92C107.976 24.76 108.069 24.68 108.123 24.68C108.203 24.68 108.243 24.7333 108.243 24.84C108.243 24.8933 108.203 24.9867 108.123 25.12C106.949 27.2 105.523 28.8533 103.843 30.08C103.736 30.24 103.563 30.32 103.323 30.32C103.136 30.32 103.043 30.2133 103.043 30C103.043 29.9467 103.083 29.7067 103.163 29.28C103.243 28.8267 103.349 28.2 103.483 27.4C103.616 26.8133 103.736 26.24 103.843 25.68C103.949 25.12 104.056 24.5467 104.163 23.96C104.349 22.6533 104.469 21.5067 104.523 20.52C103.936 20.7867 103.296 21.2267 102.603 21.84C101.936 22.4267 101.189 23.1733 100.363 24.08C99.616 24.9067 98.9627 25.6933 98.4027 26.44C97.8693 27.16 97.4293 27.84 97.0827 28.48C96.7093 29.2 96.4293 29.9733 96.2427 30.8C96.136 31.2267 95.976 31.44 95.7627 31.44ZM97.8827 19.64L98.2427 18.32C98.1093 18.4267 97.856 18.56 97.4827 18.72L97.8827 19.64ZM112.606 31.56C111.273 31.56 110.606 30.7467 110.606 29.12C110.606 27.9467 110.899 26.4933 111.486 24.76C111.379 24.4133 111.193 24.1067 110.926 23.84C110.686 23.5467 110.339 23.3067 109.886 23.12L107.726 22.24C107.379 22.08 107.206 21.8 107.206 21.4C107.206 20.9733 107.393 20.72 107.766 20.64H108.846C110.259 20.64 111.739 20.48 113.286 20.16L113.326 20.08L115.966 14.24L117.126 11.56C117.339 11.08 117.859 10.84 118.686 10.84C119.246 10.84 119.526 10.9733 119.526 11.24C119.526 11.3467 119.033 12.48 118.046 14.64C117.059 16.8267 116.499 17.9867 116.366 18.12L115.686 18.76L115.206 19.72C115.606 19.5867 116.286 19.36 117.246 19.04C118.233 18.6933 119.499 18.2533 121.046 17.72C121.153 17.6933 121.246 17.68 121.326 17.68C121.406 17.6533 121.459 17.64 121.486 17.64C121.593 17.64 121.646 17.6667 121.646 17.72C121.646 18.1733 119.393 19.04 114.886 20.32C114.353 21.36 113.899 22.2533 113.526 23C113.153 23.72 112.873 24.3067 112.686 24.76C111.993 26.52 111.646 28.1067 111.646 29.52C111.646 30.4 111.939 30.84 112.526 30.84C113.246 30.84 114.193 30.3333 115.366 29.32L117.166 27.76C117.246 27.76 117.286 27.8 117.286 27.88C117.286 27.96 117.246 28.08 117.166 28.24C116.739 28.88 116.059 29.56 115.126 30.28C114.033 31.1333 113.193 31.56 112.606 31.56ZM111.646 24.2C111.833 23.6667 112.033 23.12 112.246 22.56C112.486 22 112.739 21.4267 113.006 20.84C112.339 21 111.659 21.1467 110.966 21.28C110.299 21.4133 109.633 21.5333 108.966 21.64C110.353 22.36 111.246 23.2133 111.646 24.2ZM122.877 17.12C122.343 17.12 122.077 16.84 122.077 16.28C122.077 16.0133 122.237 15.6933 122.557 15.32C122.903 14.92 123.21 14.6533 123.477 14.52C124.437 14.0667 125.01 13.84 125.197 13.84C125.277 13.84 125.317 13.8667 125.317 13.92C125.317 14 125.01 14.3867 124.397 15.08C124.343 15.1333 124.143 15.5467 123.797 16.32C123.503 16.8533 123.197 17.12 122.877 17.12ZM120.477 29.96C119.117 29.96 118.437 29.28 118.437 27.92C118.437 26.9067 118.703 25.6267 119.237 24.08L118.517 25.2C118.17 25.7867 117.93 26.08 117.797 26.08C117.743 26.08 117.717 26.04 117.717 25.96C117.717 25.7467 117.797 25.5467 117.957 25.36C118.597 24.48 119.303 23.2133 120.077 21.56C120.157 21.3467 120.263 21.08 120.397 20.76C120.557 20.44 120.743 20.08 120.957 19.68C121.09 19.44 121.423 19.32 121.957 19.32C122.41 19.32 122.637 19.4533 122.637 19.72C122.637 20.0133 122.503 20.4133 122.237 20.92C121.997 21.4533 121.77 21.76 121.557 21.84C120.17 24.6133 119.477 26.6533 119.477 27.96C119.477 28.84 119.77 29.28 120.357 29.28C121.317 29.28 122.37 28.5867 123.517 27.2C124.717 25.8133 125.303 25.12 125.277 25.12C125.33 25.12 125.357 25.16 125.357 25.24C125.357 25.2667 125.33 25.36 125.277 25.52C125.037 25.9467 124.73 26.3867 124.357 26.84C124.01 27.2667 123.61 27.72 123.157 28.2C121.983 29.3733 121.09 29.96 120.477 29.96ZM124.63 31.44C124.39 31.44 124.27 31.2667 124.27 30.92V30.84C124.377 30.4667 124.483 30 124.59 29.44C124.723 28.88 124.87 28.2267 125.03 27.48C125.19 26.7333 125.39 25.8 125.63 24.68C125.87 23.5333 126.163 22.2133 126.51 20.72L126.03 19.56C125.897 19.2133 125.79 18.96 125.71 18.8C125.657 18.64 125.63 18.56 125.63 18.56C125.63 18.3733 125.857 18.2 126.31 18.04C127.643 17.5333 128.497 17.28 128.87 17.28C129.27 17.28 129.47 17.4 129.47 17.64C129.443 17.56 128.763 19.2667 127.43 22.76V23.12C127.43 23.8667 127.31 24.24 127.07 24.24C127.043 24.24 127.003 24.2 126.95 24.12C126.737 24.7867 126.523 25.4267 126.31 26.04C126.123 26.6267 125.95 27.2133 125.79 27.8C126.377 26.84 126.977 25.92 127.59 25.04C128.23 24.16 128.883 23.3333 129.55 22.56C131.55 20.24 133.203 19.08 134.51 19.08C135.123 19.08 135.43 19.32 135.43 19.8C135.43 19.96 135.39 20.16 135.31 20.4C135.097 21.3067 134.803 22.4533 134.43 23.84C134.057 25.2 133.617 26.7867 133.11 28.6C134.657 27.4533 135.857 26.2267 136.71 24.92C136.843 24.76 136.937 24.68 136.99 24.68C137.07 24.68 137.11 24.7333 137.11 24.84C137.11 24.8933 137.07 24.9867 136.99 25.12C135.817 27.2 134.39 28.8533 132.71 30.08C132.603 30.24 132.43 30.32 132.19 30.32C132.003 30.32 131.91 30.2133 131.91 30C131.91 29.9467 131.95 29.7067 132.03 29.28C132.11 28.8267 132.217 28.2 132.35 27.4C132.483 26.8133 132.603 26.24 132.71 25.68C132.817 25.12 132.923 24.5467 133.03 23.96C133.217 22.6533 133.337 21.5067 133.39 20.52C132.803 20.7867 132.163 21.2267 131.47 21.84C130.803 22.4267 130.057 23.1733 129.23 24.08C128.483 24.9067 127.83 25.6933 127.27 26.44C126.737 27.16 126.297 27.84 125.95 28.48C125.577 29.2 125.297 29.9733 125.11 30.8C125.003 31.2267 124.843 31.44 124.63 31.44ZM126.75 19.64L127.11 18.32C126.977 18.4267 126.723 18.56 126.35 18.72L126.75 19.64ZM140.193 31.36C138.3 31.36 137.353 30.1333 137.353 27.68C137.353 27.3067 137.367 26.9067 137.393 26.48C137.447 26.0267 137.527 25.5467 137.633 25.04C137.527 24.96 137.42 24.8533 137.313 24.72C137.207 24.56 137.1 24.3733 136.993 24.16C137.1 24.1867 137.207 24.24 137.313 24.32C137.447 24.3733 137.607 24.4267 137.793 24.48C138.087 23.1467 138.887 21.8267 140.193 20.52C141.607 19.08 142.94 18.36 144.193 18.36C144.487 18.36 144.633 18.4 144.633 18.48C144.633 18.5333 144.447 18.6667 144.073 18.88C143.087 19.4133 142.153 20.24 141.273 21.36C140.393 22.5067 139.753 23.6267 139.353 24.72L139.433 24.8C140.713 24.8 142.047 24.1867 143.433 22.96C144.82 21.7333 145.513 20.48 145.513 19.2C145.513 18.8 145.407 18.44 145.193 18.12C144.98 17.8 144.687 17.64 144.313 17.64C143.78 17.64 143.18 17.8533 142.513 18.28C141.847 18.68 141.473 18.88 141.393 18.88C141.34 18.88 141.313 18.8667 141.313 18.84C141.313 18.52 141.78 18.1733 142.713 17.8C143.513 17.48 144.14 17.32 144.593 17.32C145.207 17.32 145.713 17.4933 146.113 17.84C146.54 18.1867 146.753 18.6667 146.753 19.28C146.753 20.6933 145.833 22.0667 143.993 23.4C142.34 24.5733 140.74 25.2267 139.193 25.36C138.98 26 138.873 26.6133 138.873 27.2C138.873 29.4133 139.673 30.52 141.273 30.52C142.5 30.52 143.78 29.9867 145.113 28.92C146.233 28.04 147.167 26.9733 147.913 25.72C148.153 25.3467 148.353 25.16 148.513 25.16C148.54 25.16 148.553 25.1867 148.553 25.24C148.553 25.3467 148.447 25.5867 148.233 25.96C147.407 27.2667 146.247 28.4667 144.753 29.56C143.127 30.76 141.607 31.36 140.193 31.36Z" fill="#F83758"/>
</svg>
